HIERARCHY
ROOT Hips
{
	OFFSET 0.000000 0.000000 0.000000
	CHANNELS 6 Xposition Yposition Zposition Xrotation Yrotation Zrotation
	JOINT LeftUpLeg_virtual
	{
		OFFSET 0.000000 0.000000 0.000000
		CHANNELS 3 Xrotation Yrotation Zrotation
		JOINT LeftUpLeg
		{
			OFFSET 13.026900 -6.336304 -1.092800
			CHANNELS 3 Xrotation Yrotation Zrotation
			JOINT LeftLeg
			{
				OFFSET 0.524474 -46.096886 9.782700
				CHANNELS 3 Xrotation Yrotation Zrotation
				JOINT LeftFoot
				{
					OFFSET -0.524474 -53.427422 -12.948200
					CHANNELS 3 Xrotation Yrotation Zrotation
					JOINT LeftToeBase
					{
						OFFSET 0.192200 -14.009700 16.364100
						CHANNELS 3 Xrotation Yrotation Zrotation
						JOINT LeftToe_End
						{
							OFFSET -1.784700 -0.561700 9.474800
							CHANNELS 3 Xrotation Yrotation Zrotation
							End Site
							{
								OFFSET 0 0 0
							}
						}
					}
				}
			}
		}
	}
	JOINT RightUpLeg_virtual
	{
		OFFSET 0.000000 0.000000 0.000000
		CHANNELS 3 Xrotation Yrotation Zrotation
		JOINT RightUpLeg
		{
			OFFSET -12.883000 -6.336304 -1.092800
			CHANNELS 3 Xrotation Yrotation Zrotation
			JOINT RightLeg
			{
				OFFSET -0.524587 -46.096825 9.782800
				CHANNELS 3 Xrotation Yrotation Zrotation
				JOINT RightFoot
				{
					OFFSET 0.524587 -53.427383 -12.948300
					CHANNELS 3 Xrotation Yrotation Zrotation
					JOINT RightToeBase
					{
						OFFSET -0.192200 -14.009700 16.364100
						CHANNELS 3 Xrotation Yrotation Zrotation
						JOINT RightToe_End
						{
							OFFSET 1.784700 -0.561700 9.474800
							CHANNELS 3 Xrotation Yrotation Zrotation
							End Site
							{
								OFFSET 0 0 0
							}
						}
					}
				}
			}
		}
	}
	JOINT Spine_virtual
	{
		OFFSET 0.000000 0.000000 0.000000
		CHANNELS 3 Xrotation Yrotation Zrotation
		JOINT Spine
		{
			OFFSET 0.072000 7.257294 -0.789700
			CHANNELS 3 Xrotation Yrotation Zrotation
			JOINT Spine1
			{
				OFFSET 0.000000 12.508769 -0.658067
				CHANNELS 3 Xrotation Yrotation Zrotation
				JOINT Spine1_split
				{
					OFFSET 0.000000 12.508769 -0.658067
					CHANNELS 3 Xrotation Yrotation Zrotation
					JOINT Spine2
					{
						OFFSET 0.000000 12.508769 -0.658067
						CHANNELS 3 Xrotation Yrotation Zrotation
						JOINT Neck_virtual
						{
							OFFSET 0.000000 0.000000 0.000000
							CHANNELS 3 Xrotation Yrotation Zrotation
							JOINT Neck
							{
								OFFSET 0.000000 14.033295 7.520400
								CHANNELS 3 Xrotation Yrotation Zrotation
								JOINT Head
								{
									OFFSET 0.000000 8.198502 5.703100
									CHANNELS 3 Xrotation Yrotation Zrotation
									JOINT HeadTop_End
									{
										OFFSET 0.000000 17.760803 13.332701
										CHANNELS 3 Xrotation Yrotation Zrotation
										End Site
										{
											OFFSET 0 0 0
										}
									}
								}
							}
						}
						JOINT LeftShoulder_virtual
						{
							OFFSET 0.000000 0.000000 0.000000
							CHANNELS 3 Xrotation Yrotation Zrotation
							JOINT LeftShoulder
							{
								OFFSET 6.292450 5.785301 -0.669000
								CHANNELS 3 Xrotation Yrotation Zrotation
								JOINT LeftShoulder_split
								{
									OFFSET 6.292450 5.785301 -0.669000
									CHANNELS 3 Xrotation Yrotation Zrotation
									JOINT LeftArm
									{
										OFFSET 13.907140 -6.093903 1.965100
										CHANNELS 3 Xrotation Yrotation Zrotation
										JOINT LeftForeArm
										{
											OFFSET 34.140198 0.000000 0.000000
											CHANNELS 3 Xrotation Yrotation Zrotation
											JOINT LeftHand
											{
												OFFSET 40.960209 0.000000 0.000000
												CHANNELS 3 Xrotation Yrotation Zrotation
												End Site
												{
													OFFSET 0 0 0
												}
											}
										}
									}
								}
							}
						}
						JOINT RightShoulder_virtual
						{
							OFFSET 0.000000 0.000000 0.000000
							CHANNELS 3 Xrotation Yrotation Zrotation
							JOINT RightShoulder
							{
								OFFSET -6.292450 5.785301 -0.669000
								CHANNELS 3 Xrotation Yrotation Zrotation
								JOINT RightShoulder_split
								{
									OFFSET -6.292450 5.785301 -0.669000
									CHANNELS 3 Xrotation Yrotation Zrotation
									JOINT RightArm
									{
										OFFSET -13.907140 -6.093903 1.965100
										CHANNELS 3 Xrotation Yrotation Zrotation
										JOINT RightForeArm
										{
											OFFSET -34.140198 0.000000 0.000000
											CHANNELS 3 Xrotation Yrotation Zrotation
											JOINT RightHand
											{
												OFFSET -40.960209 0.000000 0.000000
												CHANNELS 3 Xrotation Yrotation Zrotation
												End Site
												{
													OFFSET 0 0 0
												}
											}
										}
									}
								}
							}
						}
					}
				}
			}
		}
	}
}
MOTION
Frames: 8
Frame Time: 0.03333333
-1.381854 102.354996 0.136723 0.000000 0.000000 0.000000 -10.685748 -53.690519 -1.828606 -25.516380 14.268990 20.738935 39.573542 -3.838366 -0.847541 -4.241506 1.531916 -15.362082 -2.483930 0.000005 -0.000002 0.000000 0.000000 0.000000 -10.685748 -53.690519 -1.828606 -25.471411 -0.021945 -21.244776 48.609077 3.332330 -7.958910 -14.906005 -3.091637 16.575769 -2.290970 0.000011 -0.000001 0.000000 0.000000 0.000000 -10.685748 -53.690519 -1.828606 6.712402 0.907072 -3.248507 13.440116 1.505931 -5.282129 0.000000 0.000000 0.000000 0.000000 0.000000 0.000000 13.440116 1.505917 -5.282120 3.996207 2.607472 -0.466377 -8.638512 40.681317 -5.376922 0.000000 0.000000 0.000000 13.440116 1.505917 -5.282120 -0.177274 -6.033938 5.204524 0.000000 0.000000 0.000000 -21.071661 17.785766 -57.231484 179.999991 -53.681257 180.000005 0.000000 0.000000 0.000000 13.440116 1.505917 -5.282120 10.920042 26.931038 3.130398 0.000000 0.000000 0.000000 -46.478191 38.185873 48.496095 -179.999950 69.435478 179.999978 0.000000 0.000000 0.000000 
-2.757576 102.559456 -1.920403 0.000000 0.000000 0.000000 -10.733819 -52.183325 -0.547754 -24.095347 13.304000 18.977831 36.734311 -4.043567 0.471181 -2.221737 2.364556 -16.936374 -5.669387 0.000012 -0.000001 0.000000 0.000000 0.000000 -10.733819 -52.183325 -0.547754 -25.475873 -0.157571 -21.277860 50.076591 2.606195 -7.389585 -16.635674 -4.222859 13.157162 -1.965094 -0.000002 -0.000000 0.000000 0.000000 0.000000 -10.733819 -52.183325 -0.547754 7.709398 0.226090 -4.798237 13.471025 1.247508 -5.375650 0.000000 0.000000 0.000000 0.000000 0.000000 0.000000 13.463745 1.291632 -5.383112 3.970771 2.575121 -0.513153 -6.939627 39.500302 -7.024642 0.000000 0.000000 0.000000 13.463745 1.291632 -5.383112 -0.604230 -6.510264 2.042939 0.000000 0.000000 0.000000 -15.274323 19.486422 -56.458070 179.999991 -51.120370 179.999991 0.000000 0.000000 0.000000 13.463745 1.291632 -5.383112 10.874063 26.686428 2.331218 0.000000 0.000000 0.000000 -47.669868 38.728962 52.535653 -179.999841 74.887328 179.999855 0.000000 0.000000 0.000000 
-3.860693 102.904091 -4.909325 0.000000 0.000000 0.000000 -9.889764 -48.581332 1.102242 -25.438519 9.740145 17.413559 34.212175 -2.637502 2.726571 6.536798 -0.617676 -20.581098 -8.253308 -0.000000 0.000003 0.000000 0.000000 0.000000 -9.889764 -48.581332 1.102242 -25.386182 -0.661234 -20.891635 51.221306 2.209188 -6.149658 -17.575916 -7.089120 9.861732 -2.401860 0.000005 0.000002 0.000000 0.000000 0.000000 -9.889764 -48.581332 1.102242 11.219828 0.275017 -6.145008 13.743585 1.075059 -5.733794 0.000000 0.000000 0.000000 0.000000 0.000000 0.000000 13.747227 1.106296 -5.720679 3.149075 2.157400 -0.468786 -10.603146 33.243927 -7.617211 0.000000 0.000000 0.000000 13.747227 1.106296 -5.720679 -0.478527 -7.847186 1.562672 0.000000 0.000000 0.000000 -13.760010 17.595771 -53.833772 -179.999991 -49.527051 -179.999978 0.000000 0.000000 0.000000 13.747227 1.106296 -5.720679 10.980228 26.274290 0.074706 0.000000 0.000000 0.000000 -50.899925 37.184001 56.537710 -179.999814 80.068709 179.999841 0.000000 0.000000 0.000000 
-4.741444 103.495659 -9.104382 0.000000 0.000000 0.000000 -8.629154 -42.354433 2.966773 -29.476200 4.547509 15.961817 29.733985 -4.349271 4.708706 25.662633 -7.359990 -25.721552 -17.955022 -0.371418 2.611969 0.000000 0.000000 0.000000 -8.629154 -42.354433 2.966773 -26.011153 -1.609073 -20.564704 52.541807 2.082359 -4.187860 -16.217956 -11.587021 6.956821 -3.674515 0.000012 0.000001 0.000000 0.000000 0.000000 -8.629154 -42.354433 2.966773 17.964012 0.880135 -6.854259 14.257635 1.175856 -6.173257 0.000000 0.000000 0.000000 0.000000 0.000000 0.000000 14.271723 1.144404 -6.159652 1.030291 1.366866 -0.531298 -18.064115 21.785730 -7.186364 0.000000 0.000000 0.000000 14.271723 1.144404 -6.159652 0.113021 -10.231132 2.620951 0.000000 0.000000 0.000000 -19.533093 10.946753 -46.589400 179.999978 -49.272274 179.999964 0.000000 0.000000 0.000000 14.271723 1.144404 -6.159652 11.028368 25.558196 -3.395085 0.000000 0.000000 0.000000 -55.659577 32.942774 57.345968 179.999978 83.107816 -179.999937 0.000000 0.000000 0.000000 
-5.585402 104.756897 -14.476368 0.000000 0.000000 0.000000 -6.867543 -34.155741 5.256020 -35.375633 0.215199 12.871553 23.646147 -9.457028 6.284565 39.413600 -13.308132 -26.641259 -1.583172 -0.000012 0.000005 0.000000 0.000000 0.000000 -6.867543 -34.155741 5.256020 -27.661561 -2.889289 -20.849506 52.860699 0.756406 -2.129589 -11.482582 -16.240236 7.117163 -6.190428 0.000005 -0.000004 0.000000 0.000000 0.000000 -6.867543 -34.155741 5.256020 26.950140 1.335902 -6.707487 14.655808 1.519299 -6.126761 0.000000 0.000000 0.000000 0.000000 0.000000 0.000000 14.662876 1.483529 -6.167031 -2.406590 0.431387 -0.934282 -25.480997 7.746950 -5.946671 0.000000 0.000000 0.000000 14.662876 1.483529 -6.167031 0.825260 -13.394392 3.259606 0.000000 0.000000 0.000000 -30.529723 1.995661 -37.132016 -179.999964 -50.516636 -179.999991 0.000000 0.000000 0.000000 14.662876 1.483529 -6.167031 10.629950 24.503655 -7.123617 0.000000 0.000000 0.000000 -60.104879 27.021475 52.261968 179.999076 83.029508 -179.999062 0.000000 0.000000 0.000000 
-6.431519 105.932648 -19.696583 0.000000 0.000000 0.000000 -4.197960 -25.923414 7.571717 -45.958820 -3.072782 10.413726 23.246165 -9.148922 5.550771 35.664765 -14.491570 -24.547104 3.584065 -0.000002 0.000008 0.000000 0.000000 0.000000 -4.197960 -25.923414 7.571717 -30.756987 -3.611407 -21.882809 52.771380 -1.404955 -0.768755 -4.600580 -18.054953 11.472093 -10.201577 -0.047796 0.836741 0.000000 0.000000 0.000000 -4.197960 -25.923414 7.571717 35.791106 1.534291 -5.907392 14.524297 1.900859 -5.564958 0.000000 0.000000 0.000000 0.000000 0.000000 0.000000 14.508037 1.932580 -5.698223 -6.380437 -0.304770 -1.714035 -28.951710 -4.463818 -3.802722 0.000000 0.000000 0.000000 14.508037 1.932580 -5.698223 1.346259 -16.566381 2.844987 0.000000 0.000000 0.000000 -42.339796 -6.338950 -29.746553 179.999991 -53.424425 179.999964 0.000000 0.000000 0.000000 14.508037 1.932580 -5.698223 9.778200 23.398435 -10.255345 0.000000 0.000000 0.000000 -63.885150 21.703513 42.109233 179.999991 82.594957 -179.999950 0.000000 0.000000 0.000000 
-7.707240 107.285133 -24.628864 0.000000 0.000000 0.000000 -0.837149 -19.013862 10.076739 -56.136345 -3.746120 9.300074 21.999578 -4.610240 2.845996 32.608471 -8.637501 -23.736029 5.176626 -0.000000 -0.000006 0.000000 0.000000 0.000000 -0.837149 -19.013862 10.076739 -34.320850 -3.648510 -22.891471 51.992465 -2.380537 -0.780526 -1.317346 -15.290915 15.213710 -11.557407 0.205804 -2.678790 0.000000 0.000000 0.000000 -0.837149 -19.013862 10.076739 42.959424 1.391981 -5.732392 14.039429 2.057634 -5.007958 0.000000 0.000000 0.000000 0.000000 0.000000 0.000000 14.014504 2.127451 -5.192614 -9.715701 -0.662649 -2.567619 -27.502805 -11.941729 -1.031551 0.000000 0.000000 0.000000 14.014504 2.127451 -5.192614 1.441038 -18.951866 1.205698 0.000000 0.000000 0.000000 -53.065348 -15.358273 -25.319033 179.999991 -59.238955 179.999991 0.000000 0.000000 0.000000 14.014504 2.127451 -5.192614 9.406360 22.684197 -13.464537 0.000000 0.000000 0.000000 -67.827296 17.937250 29.820971 -179.999882 85.982875 179.999909 0.000000 0.000000 0.000000 
-9.260864 108.227226 -29.184772 0.000000 0.000000 0.000000 1.968926 -13.424511 12.117120 -62.994944 -2.192604 9.221089 19.781046 2.393606 -0.624851 31.898486 -4.256173 -18.842245 3.502131 0.000003 0.000002 0.000000 0.000000 0.000000 1.968926 -13.424511 12.117120 -35.819961 -4.225431 -22.870287 49.345719 -3.127573 -1.710592 -6.431805 -9.429012 14.410451 -8.123274 0.025674 -1.254539 0.000000 0.000000 0.000000 1.968926 -13.424511 12.117120 48.657807 1.384674 -5.857964 13.654267 1.987814 -4.562902 0.000000 0.000000 0.000000 0.000000 0.000000 0.000000 13.643529 2.035844 -4.737190 -11.506279 -0.729611 -3.006017 -23.378167 -14.723086 1.348460 0.000000 0.000000 0.000000 13.643529 2.035844 -4.737190 2.423889 -20.035363 2.618537 0.000000 0.000000 0.000000 -64.111154 -23.336596 -27.027371 179.999991 -68.190867 179.999991 0.000000 0.000000 0.000000 13.643529 2.035844 -4.737190 10.717503 22.253625 -18.687877 0.000000 0.000000 0.000000 -73.073537 14.568517 18.887310 0.000940 85.501988 -0.000991 0.000000 0.000000 0.000000 
